<svg width="400" height="118.75341832637787"  fill="red"  viewBox="0 0 320 95.0027346611023" ><defs id="SvgjsDefs1537"></defs><g id="SvgjsG1538" featurekey="5TMTKC-0" transform="matrix(0.78125,0,0,0.78125,0,-2.497890591621399)" fill="#f33535"><g xmlns="http://www.w3.org/2000/svg"><path d="M124.5526962,62.0493011l-5.1380997-3.0228996c-0.9477997-0.5576019-2.1977997-0.8369026-3.4472961-0.8369026   c-1.2495041,0-2.4995041,0.2793007-3.4473038,0.8369026l-5.1381989,3.0228996   c-0.453598,0.2670975-0.8852005,0.6293983-1.2832031,1.0503006l-11.2748947-8.7402   C94.9281998,53.9165001,95,53.4766006,95,53.0570984V24.3511009c0-2.200201-1.5487976-4.9170017-3.4419022-6.0376015   L67.4419022,4.0376C66.4951019,3.4775,65.2475967,3.1973,64,3.1973c-1.2476006,0-2.4950981,0.2802-3.4418983,0.8403001   L36.4418983,18.3134995C34.5488014,19.4340992,33,22.1508999,33,24.3511009v28.7059975   c0,0.4195023,0.0718002,0.8594017,0.1763,1.3023033l-11.2749004,8.7402   c-0.3979988-0.4209023-0.8295994-0.7832031-1.2831993-1.0503006l-5.1382008-3.0228996   c-0.9482994-0.5576019-2.1977997-0.8369026-3.4473-0.8369026s-2.4990091,0.2793007-3.4472494,0.8369026l-5.1381803,3.0228996   C1.55127,63.1650009,0,65.8778992,0,68.0781021v6.1612015c0,2.2001953,1.55127,4.9129944,3.4472699,6.0287933l5.1381803,3.0229034   c0.9482403,0.5576019,2.1977501,0.8368988,3.4472494,0.8368988s2.4990005-0.2792969,3.4473-0.8368988l5.1382008-3.0229034   c1.8959999-1.115799,3.4471989-3.828598,3.4471989-6.0287933v-6.1612015c0-0.4614029-0.0819988-0.9468002-0.2069988-1.4341049   l11.2157993-8.6942978c0.419899,0.4624023,0.8819008,0.857399,1.3676987,1.1450005l24.1162033,14.275898   c0.435997,0.2578049,0.9408989,0.4496994,1.4750977,0.5889053v20.259697   c-0.533699,0.1397018-1.0375977,0.3315964-1.4730988,0.5898972l-7.1202011,4.2251053   C51.5479012,100.1567001,50,102.875,50,105.0752029v8.6166992c0,2.2001953,1.5479012,4.9184952,3.4398994,6.0414963   l7.1202011,4.2251053c0.9458008,0.5614929,2.1927986,0.8422928,3.4398994,0.8422928s2.4941025-0.2807999,3.4399033-0.8422928   l7.1201935-4.2251053C76.4521027,118.6103973,78,115.8920975,78,113.6919022v-8.6166992   c0-2.2002029-1.5478973-4.9185028-3.4399033-6.0410004l-7.1201935-4.2251053   c-0.4169998-0.2475967-0.898407-0.4306946-1.4067001-0.5689011V73.939003   c0.5087967-0.1382065,0.9911957-0.3213043,1.408699-0.5684052l24.1161957-14.275898   c0.4858017-0.2876015,0.9477997-0.6825981,1.3676987-1.1450005l11.2157974,8.6942978   c-0.125,0.4873047-0.2069931,0.972702-0.2069931,1.4341049v6.1612015c0,2.2001953,1.5511932,4.9129944,3.447197,6.0287933   l5.1381989,3.0229034c0.9477997,0.5576019,2.1977997,0.8368988,3.4473038,0.8368988   c1.2494965,0,2.4994965-0.2792969,3.4472961-0.8368988l5.1380997-3.0229034C126.4487,79.152298,128,76.4394989,128,74.2393036   v-6.1612015C128,65.8778992,126.4487,63.1650009,124.5526962,62.0493011z M20.0653992,74.2393036   c0,0.7840958-0.799799,2.1835938-1.4755993,2.5809937l-5.1386003,3.0235062   c-0.1791992,0.1054001-0.6796999,0.2840958-1.4184999,0.2840958s-1.2391996-0.1786957-1.4188995-0.2845993l-5.1377301-3.0224991   C4.7997999,76.4228973,4,75.0233994,4,74.2393036v-6.1612015c0-0.7842026,0.7997999-2.1836014,1.4755902-2.5810013   l5.1387095-3.0235023c0.1792002-0.1054001,0.6795998-0.2840996,1.4183998-0.2840996s1.2393007,0.1786995,1.4190006,0.2845993   l5.1376991,3.0224991c0.6762009,0.3979034,1.4759998,1.7973022,1.4759998,2.5815048V74.2393036z M72.5189972,102.4740982   C73.1973038,102.876503,74,104.2865982,74,105.0752029v8.6166992c0,0.7885971-0.8031998,2.1991959-1.4813995,2.6016006   l-7.1202011,4.2250977c-0.1766968,0.1048965-0.669899,0.282196-1.3983994,0.282196s-1.2216988-0.1772995-1.3983994-0.282196   l-7.1202011-4.2250977C54.8031998,115.891098,54,114.4804993,54,113.6919022v-8.6166992   c0-0.7886047,0.8027-2.1987,1.4813995-2.6011047l7.1197014-4.2250977c0.0790977-0.0468979,0.2304001-0.107399,0.4286995-0.1605988   h1.9403992c0.1983032,0.0531998,0.3490982,0.1137009,0.4281998,0.1605988L72.5189972,102.4740982z M91,53.0570984   c0,0.7876015-0.8018036,2.1944008-1.4794998,2.5957031l-7.6826019,4.5478973   c-0.5732956-4.5112-2.7607956-8.482399-5.9356003-11.2192993c-0.9140015,1.0009995-1.9477005,1.892601-3.0932007,2.6372986   c3.1206055,2.430603,5.1660004,6.3847008,5.1870041,10.8559036l-12.5918045,7.4541016   C65.2270966,70.0332031,64.7319031,70.2108994,64,70.2108994c-0.7318993,0-1.2271004-0.1776962-1.4043007-0.282196   l-12.5918007-7.4541016c0.0209999-4.4702034,2.0679016-8.4224014,5.1914024-10.8535004   c-1.1459999-0.7441025-2.1797028-1.6357002-3.0942001-2.6362c-3.1763,2.7362976-5.3647995,6.7064972-5.9389992,11.2152977   l-7.6826019-4.5478973C37.8017998,55.2514992,37,53.8446999,37,53.0570984V24.3511009   c0-0.7876015,0.8017998-2.1944008,1.4794998-2.5957012L62.5956993,7.4794998C62.7728996,7.375,63.2681007,7.1973,64,7.1973   c0.7319031,0,1.2270966,0.1777,1.4042969,0.2821999l24.1162033,14.2763996C90.1981964,22.1567001,91,23.5634995,91,24.3511009   V53.0570984z M124,74.2393036c0,0.7840958-0.7998047,2.1835938-1.4756012,2.5809937l-5.1387024,3.0235062   c-0.1791992,0.1054001-0.6795959,0.2840958-1.418396,0.2840958s-1.2393036-0.1786957-1.4190063-0.2845993l-5.1376953-3.0224991   c-0.6762009-0.3979034-1.4759979-1.7974014-1.4759979-2.5814972v-6.1612015c0-0.7842026,0.7997971-2.1836014,1.4755936-2.5810013   l5.1386032-3.0235023c0.1791992-0.1054001,0.6797028-0.2840996,1.4185028-0.2840996s1.2391968,0.1786995,1.4188995,0.2845993   l5.1376953,3.0224991C123.2001953,65.8945007,124,67.2938995,124,68.0781021V74.2393036z"></path><path d="M64,28.5400009c-5.6235008,0-10.1820984,4.4726982-10.1820984,9.9888S58.3764992,48.517601,64,48.517601   s10.1820984-4.472702,10.1820984-9.9888S69.623497,28.5400009,64,28.5400009z M64,44.517601   c-3.408699,0-6.1820984-2.6865005-6.1820984-5.9888c0-3.3022003,2.7733994-5.9888,6.1820984-5.9888   s6.1820984,2.6865997,6.1820984,5.9888C70.1820984,41.8311005,67.408699,44.517601,64,44.517601z"></path></g></g><g id="SvgjsG1539" featurekey="7UBp9i-0" transform="matrix(3.2456982989068686,0,0,3.2456982989068686,120.51930968490129,5.434606411227314)" fill="#f33535"><path d="M3.08 5.720000000000001 l3.18 10.04 l0.04 0 l3.22 -10.04 l3.24 0 l-4.74 14.28 l-3.54 0 l-4.64 -14.28 l3.24 0 z M17.36 9.38 c0.97334 0 1.84 0.22664 2.6 0.67998 s1.3567 1.11 1.79 1.97 s0.65 1.85 0.65 2.97 c0 0.10666 -0.0066602 0.28 -0.02 0.52 l-7.46 0 c0.02666 0.82666 0.24332 1.47 0.64998 1.93 s1.03 0.69 1.87 0.69 c0.52 0 0.99666 -0.13 1.43 -0.39 s0.71 -0.57666 0.83 -0.95 l2.5 0 c-0.73334 2.32 -2.3466 3.48 -4.84 3.48 c-0.94666 -0.01334 -1.8233 -0.22 -2.63 -0.62 s-1.45 -1.0233 -1.93 -1.87 s-0.72 -1.83 -0.72 -2.95 c0 -1.0533 0.24334 -2.0134 0.73 -2.88 s1.1333 -1.5133 1.94 -1.94 s1.6767 -0.64 2.61 -0.64 z M19.54 13.719999999999999 c-0.13334 -0.77334 -0.38 -1.3333 -0.74 -1.68 s-0.87334 -0.52 -1.54 -0.52 c-0.69334 0 -1.24 0.19666 -1.64 0.59 s-0.63334 0.93 -0.7 1.61 l4.62 0 z M29.02 9.38 c1.4 0 2.54 0.35664 3.42 1.07 s1.36 1.6633 1.44 2.85 l-2.78 0 c-0.18666 -1.1867 -0.88666 -1.78 -2.1 -1.78 c-0.74666 0 -1.3367 0.30666 -1.77 0.92 s-0.65 1.4267 -0.65 2.44 c0 0.97334 0.20666 1.76 0.62 2.36 s0.99334 0.9 1.74 0.9 c1.2933 0 2.0466 -0.7 2.26 -2.1 l2.74 0 c-0.18666 1.3733 -0.71666 2.4234 -1.59 3.15 s-2.0034 1.09 -3.39 1.09 c-1.5333 0 -2.7866 -0.49 -3.76 -1.47 s-1.46 -2.2566 -1.46 -3.83 c0 -1.7067 0.48 -3.0666 1.44 -4.08 s2.24 -1.52 3.84 -1.52 z M39.14 6.5600000000000005 l0.000019531 3.1 l2.08 0 l0 1.9 l-2.08 0 l0 5.12 c0 0.48 0.08 0.8 0.24 0.96 s0.48 0.24 0.96 0.24 c0.34666 0 0.64 -0.02666 0.88 -0.08 l0 2.22 c-0.4 0.06666 -0.96 0.1 -1.68 0.1 c-1.0933 0 -1.9067 -0.18666 -2.44 -0.56 s-0.8 -1.02 -0.8 -1.94 l0 -6.06 l-1.72 0 l0 -1.9 l1.72 0 l0 -3.1 l2.84 0 z M47.6 9.38 c1.6533 0 2.96 0.50334 3.92 1.51 s1.44 2.3234 1.44 3.95 c0 1.64 -0.49 2.9566 -1.47 3.95 s-2.2766 1.49 -3.89 1.49 c-1.64 0 -2.94 -0.50334 -3.9 -1.51 s-1.44 -2.3166 -1.44 -3.93 c0 -1.6667 0.49 -2.9934 1.47 -3.98 s2.27 -1.48 3.87 -1.48 z M45.1 14.84 c0 1.0533 0.21334 1.8666 0.64 2.44 s1.0467 0.86 1.86 0.86 c0.84 0 1.47 -0.29334 1.89 -0.88 s0.63 -1.3933 0.63 -2.42 c0 -1.0667 -0.21666 -1.8867 -0.65 -2.46 s-1.0633 -0.86 -1.89 -0.86 c-0.8 0 -1.4133 0.28666 -1.84 0.86 s-0.64 1.3933 -0.64 2.46 z M60.839999999999996 9.38 c0.24 0 0.44668 0.03334 0.62002 0.1 l0 2.64 c-0.30666 -0.06666 -0.64666 -0.1 -1.02 -0.1 c-1.8667 0 -2.8 1.1067 -2.8 3.32 l0 4.66 l-2.84 0 l0 -10.34 l2.7 0 l0 1.92 l0.04 0 c0.28 -0.66666 0.72334 -1.2 1.33 -1.6 s1.2633 -0.6 1.97 -0.6 z"></path></g></svg>